<svg width="20" height="24" viewBox="0 0 20 24" fill="none" xmlns="http://www.w3.org/2000/svg">
<rect x="3" y="6" width="13" height="4" fill="white" fill-opacity="0.4"/>
<path fill-rule="evenodd" clip-rule="evenodd" d="M6.125 0H13.8375C17.225 0 19.9625 1.28395 20 4.54782V22.7631C20 22.9671 19.95 23.1711 19.85 23.3511C19.6875 23.6391 19.4125 23.8551 19.075 23.9511C18.75 24.0471 18.3875 23.9991 18.0875 23.8311L9.9875 19.9432L1.875 23.8311C1.68875 23.9259 1.475 23.9871 1.2625 23.9871C0.5625 23.9871 0 23.4351 0 22.7631V4.54782C0 1.28395 2.75 0 6.125 0ZM5.27529 9.14372H14.6878C15.2253 9.14372 15.6628 8.72254 15.6628 8.19576C15.6628 7.66778 15.2253 7.24779 14.6878 7.24779H5.27529C4.73779 7.24779 4.30029 7.66778 4.30029 8.19576C4.30029 8.72254 4.73779 9.14372 5.27529 9.14372Z" fill="white"/>
</svg>
