<svg width="16" height="14" viewBox="0 0 16 14" fill="none" xmlns="http://www.w3.org/2000/svg">
<path d="M14.7145 1.64623C12.9744 -0.0934292 10.1436 -0.0934292 8.40393 1.64623L7.99986 2.05006L7.59603 1.64623C5.85637 -0.0936647 3.02531 -0.0936647 1.28565 1.64623C-0.418689 3.35057 -0.429756 6.05212 1.25998 7.93047C2.80114 9.64305 7.34643 13.343 7.53928 13.4996C7.6702 13.606 7.82773 13.6578 7.98432 13.6578C7.9895 13.6578 7.99468 13.6578 7.99963 13.6576C8.16163 13.6651 8.32481 13.6096 8.45997 13.4996C8.65282 13.343 13.1986 9.64305 14.7402 7.93024C16.4297 6.05212 16.4186 3.35057 14.7145 1.64623ZM13.69 6.98529C12.4884 8.32017 9.18546 11.0733 7.99963 12.0503C6.8138 11.0735 3.51155 8.32065 2.31018 6.98553C1.13142 5.67537 1.12035 3.8095 2.28452 2.64533C2.87908 2.051 3.6599 1.7536 4.44072 1.7536C5.22154 1.7536 6.00236 2.05077 6.59693 2.64533L7.48512 3.53353C7.59085 3.63925 7.72412 3.70236 7.86399 3.72449C8.09099 3.77324 8.33729 3.70989 8.51389 3.53376L9.40256 2.64533C10.5919 1.45644 12.5266 1.45667 13.7152 2.64533C14.8794 3.8095 14.8683 5.67537 13.69 6.98529Z" fill="white"/>
</svg>
