<svg width="20" height="20" viewBox="0 0 20 20" fill="none" xmlns="http://www.w3.org/2000/svg">
<path fill-rule="evenodd" clip-rule="evenodd" d="M1.39551 5.88849C1.39551 3.16249 3.06051 1.39549 5.63751 1.39549H14.3535C16.9395 1.39549 18.6045 3.16249 18.6045 5.88849V11.1905C18.1585 10.8125 16.8115 9.87149 16.6235 9.75949C15.2235 8.91949 13.5435 9.29949 12.4535 10.7195C12.3585 10.8445 10.7815 13.1445 10.2235 13.4885C10.0945 13.5685 9.95851 13.6115 9.81351 13.6315C9.46351 13.6615 9.12651 13.4815 8.55351 13.0985C8.22351 12.8885 7.86351 12.6495 7.45351 12.4795C5.74851 11.7665 4.44951 12.9445 3.75751 13.7345C3.74851 13.7425 1.81151 16.1045 1.78051 16.1415C1.53751 15.5505 1.39551 14.8675 1.39551 14.1025V5.88849ZM19.9995 5.88849C19.9995 2.36249 17.7305 0.000488281 14.3535 0.000488281H5.63751C2.27051 0.000488281 -0.000488281 2.36249 -0.000488281 5.88849V14.1025C-0.000488281 15.6745 0.446512 17.0135 1.23751 18.0095C1.24651 18.0185 1.24651 18.0285 1.25551 18.0285C2.04251 19.0135 3.16551 19.6665 4.51851 19.8995C4.53051 19.9015 4.54251 19.9035 4.55551 19.9055C4.90251 19.9625 5.26151 20.0005 5.63751 20.0005H14.3535C14.5345 20.0005 14.6995 19.9665 14.8735 19.9535C15.0775 19.9365 15.2885 19.9325 15.4825 19.8985C15.7395 19.8545 15.9755 19.7775 16.2145 19.7035C16.3185 19.6705 16.4295 19.6505 16.5295 19.6125C16.7725 19.5205 16.9955 19.4015 17.2165 19.2795C17.2965 19.2355 17.3825 19.1995 17.4605 19.1505C17.6775 19.0145 17.8745 18.8555 18.0675 18.6895C18.1315 18.6345 18.2005 18.5845 18.2615 18.5265C18.4495 18.3475 18.6155 18.1505 18.7745 17.9445C18.8235 17.8795 18.8755 17.8195 18.9225 17.7525C19.0755 17.5345 19.2075 17.2995 19.3295 17.0545C19.3635 16.9835 19.3995 16.9145 19.4325 16.8425C19.5455 16.5855 19.6395 16.3165 19.7195 16.0345C19.7405 15.9585 19.7615 15.8835 19.7795 15.8055C19.8505 15.5145 19.9015 15.2145 19.9345 14.9005C19.9385 14.8625 19.9495 14.8275 19.9535 14.7895C19.9605 14.7045 19.9595 14.6195 19.9645 14.5345C19.9725 14.3885 19.9995 14.2535 19.9995 14.1025V5.88849Z" fill="white"/>
<path d="M6.50484 9.00009C7.86628 9.00009 9 7.87 9 6.51505C9 5.83564 8.71512 5.21318 8.26066 4.76153C7.80814 4.29347 7.17636 4.00009 6.47868 4.00009C5.10853 4.00009 4 5.10413 4 6.46873C4 6.64919 4.02132 6.82387 4.05911 6.99372C4.28779 8.12574 5.30814 9.00009 6.50484 9.00009Z" fill="white" fill-opacity="0.4"/>
</svg>
