<svg width="20" height="20" viewBox="0 0 20 20" fill="none" xmlns="http://www.w3.org/2000/svg">
<path d="M16.7803 11.9928C16.5493 11.8892 16.2866 11.8815 16.05 11.9715C15.8134 12.0614 15.6222 12.2417 15.5185 12.4727C15.0503 13.5167 14.2956 14.4065 13.3419 15.0387C12.3882 15.6709 11.2747 16.0195 10.1308 16.0442C8.98687 16.0689 7.85941 15.7686 6.87935 15.1781C5.89929 14.5876 5.10685 13.7312 4.59405 12.7083L5.13468 12.949C5.36596 13.052 5.62867 13.0589 5.86503 12.9682C6.10138 12.8774 6.29202 12.6965 6.39499 12.4653C6.49796 12.234 6.50484 11.9713 6.41411 11.7349C6.32339 11.4986 6.14248 11.3079 5.9112 11.205L3.39889 10.0864C3.28438 10.0354 3.16093 10.0075 3.03562 10.0042C2.91031 10.001 2.78557 10.0224 2.66854 10.0673C2.55151 10.1122 2.44447 10.1798 2.35354 10.2661C2.26261 10.3523 2.18957 10.4557 2.13858 10.5702L1.02003 13.0824C0.917054 13.3137 0.910175 13.5764 1.0009 13.8128C1.09163 14.0492 1.27253 14.2398 1.50382 14.3428C1.7351 14.4457 1.99781 14.4526 2.23417 14.3619C2.47052 14.2712 2.66116 14.0903 2.76413 13.859L2.89171 13.5724C3.55406 14.8898 4.56946 15.9972 5.8246 16.7711C7.07975 17.5449 8.52524 17.9547 9.99975 17.9548C10.0459 17.9548 10.0923 17.9544 10.1385 17.9536C11.6492 17.9275 13.1213 17.4717 14.3825 16.6395C15.6437 15.8074 16.6418 14.6333 17.2601 13.2547C17.3638 13.0237 17.3715 12.761 17.2815 12.5244C17.1915 12.2877 17.0112 12.0965 16.7803 11.9928Z" fill="white"/>
<path d="M18.4955 5.65724C18.2642 5.55428 18.0015 5.5474 17.7652 5.63813C17.5288 5.72886 17.3382 5.90976 17.2352 6.14103L17.1076 6.42756C16.4345 5.08867 15.397 3.9671 14.1144 3.19197C12.8319 2.41684 11.3566 2.01966 9.85824 2.04617C8.35991 2.07267 6.89953 2.52178 5.64522 3.3418C4.39092 4.16181 3.3937 5.31937 2.76836 6.68123C2.71584 6.79515 2.68629 6.9183 2.68139 7.04365C2.6765 7.169 2.69635 7.29408 2.73983 7.41175C2.78331 7.52941 2.84955 7.63736 2.93478 7.72941C3.02 7.82146 3.12253 7.89581 3.2365 7.94821C3.35048 8.0006 3.47366 8.03002 3.59902 8.03478C3.72437 8.03954 3.84943 8.01955 3.96705 7.97594C4.08467 7.93234 4.19255 7.86598 4.2845 7.78065C4.37646 7.69533 4.4507 7.59272 4.50297 7.47869C4.97849 6.44299 5.73697 5.56272 6.69101 4.93934C7.64506 4.31596 8.75582 3.97484 9.8953 3.9553C11.0348 3.93575 12.1566 4.23857 13.1315 4.82886C14.1063 5.41914 14.8946 6.27287 15.4053 7.29166L14.8647 7.05095C14.6337 6.94955 14.3719 6.94373 14.1366 7.03477C13.9013 7.12581 13.7116 7.30631 13.6089 7.5368C13.5063 7.7673 13.4991 8.02905 13.5889 8.26483C13.6787 8.50062 13.8582 8.69126 14.0882 8.7951L16.5932 9.91025L16.5977 9.91228C16.7123 9.96372 16.8359 9.99203 16.9614 9.99561C17.087 9.99919 17.212 9.97796 17.3293 9.93314C17.4466 9.88831 17.5539 9.82078 17.6451 9.7344C17.7363 9.64803 17.8095 9.54451 17.8606 9.42978L18.9791 6.91756C19.0821 6.68629 19.089 6.42359 18.9983 6.18724C18.9076 5.95089 18.7268 5.76024 18.4955 5.65724Z" fill="white"/>
</svg>
