<svg width="18" height="17" viewBox="0 0 18 17" fill="none" xmlns="http://www.w3.org/2000/svg">
<path fill-rule="evenodd" clip-rule="evenodd" d="M8.67711 1.87297C4.9406 1.87297 1.90072 4.84489 1.90072 8.49887C1.90072 12.1529 4.9406 15.1256 8.67711 15.1256C12.4128 15.1256 15.4527 12.1529 15.4527 8.49887C15.4527 4.84489 12.4128 1.87297 8.67711 1.87297ZM8.67709 16.332C4.26039 16.332 0.666992 12.818 0.666992 8.49887C0.666992 4.17973 4.26039 0.666504 8.67709 0.666504C13.0938 0.666504 16.6864 4.17973 16.6864 8.49887C16.6864 12.818 13.0938 16.332 8.67709 16.332Z" fill="white"/>
<path d="M8.67711 1.37297C4.67512 1.37297 1.40072 4.5582 1.40072 8.49887H2.40072C2.40072 5.13158 5.20607 2.37297 8.67711 2.37297V1.37297ZM1.40072 8.49887C1.40072 12.4395 4.67504 15.6256 8.67711 15.6256V14.6256C5.20615 14.6256 2.40072 11.8662 2.40072 8.49887H1.40072ZM8.67711 15.6256C12.6784 15.6256 15.9527 12.4394 15.9527 8.49887H14.9527C14.9527 11.8663 12.1472 14.6256 8.67711 14.6256V15.6256ZM15.9527 8.49887C15.9527 4.55824 12.6783 1.37297 8.67711 1.37297V2.37297C12.1473 2.37297 14.9527 5.13155 14.9527 8.49887H15.9527ZM8.67709 15.832C4.52595 15.832 1.16699 12.5314 1.16699 8.49887H0.166992C0.166992 13.1046 3.99484 16.832 8.67709 16.832V15.832ZM1.16699 8.49887C1.16699 4.46641 4.52588 1.1665 8.67709 1.1665V0.166504C3.9949 0.166504 0.166992 3.89305 0.166992 8.49887H1.16699ZM8.67709 1.1665C12.8282 1.1665 16.1864 4.46634 16.1864 8.49887H17.1864C17.1864 3.89312 13.3593 0.166504 8.67709 0.166504V1.1665ZM16.1864 8.49887C16.1864 12.5315 12.8282 15.832 8.67709 15.832V16.832C13.3594 16.832 17.1864 13.1046 17.1864 8.49887H16.1864Z" fill="white"/>
</svg>
