<svg width="1920" height="820" viewBox="0 0 1920 820" fill="none" xmlns="http://www.w3.org/2000/svg">
<path d="M1236.49 632.452C1232.15 630.976 1227.93 629.174 1223.88 627.065C1186.64 607.712 1173.45 570.482 1159.49 531.067C1149.67 503.369 1139.52 474.723 1120.25 452.732C1101.76 431.616 1075.68 417.727 1050.46 404.268C1036.72 396.953 1022.52 389.386 1009.55 380.697C970.411 354.458 942.899 305.78 966.704 272.906C984.982 247.667 1023.49 245.695 1044.81 246.764C1053.32 247.191 1062 248.05 1070.4 248.883C1090.56 250.879 1111.41 252.946 1131.02 249.075C1159.04 243.531 1181.84 226.534 1203.88 210.098C1216.4 200.704 1229.38 191.077 1243.3 183.454C1284.8 160.739 1340.46 157.678 1392.22 175.268C1435.69 190.042 1471.17 217.161 1492.14 251.635C1501.28 266.687 1508.26 283.265 1515 299.313C1527.8 329.747 1539.89 358.496 1565.67 378.708C1579.35 389.444 1595.93 396.597 1611.95 403.518C1619.79 406.907 1627.9 410.406 1635.62 414.302C1652.92 423.024 1682.4 441.942 1685.49 470.646C1689.28 505.849 1648.23 531.517 1607.51 533.403C1590.82 534.172 1573.73 532.484 1557.21 530.81C1535.69 528.678 1513.44 526.473 1492.2 529.785C1452.96 535.934 1421.34 559.892 1390.76 583.066C1382.73 589.158 1374.42 595.431 1366.11 601.31C1344.47 616.625 1288.59 650.162 1236.49 632.452ZM1391.36 177.64C1340.37 160.309 1285.54 163.304 1244.71 185.656C1230.94 193.196 1218.05 202.816 1205.58 212.111C1183.32 228.718 1160.3 245.896 1131.66 251.546C1111.65 255.495 1090.6 253.416 1070.22 251.397C1061.86 250.569 1053.21 249.713 1044.79 249.3C1024.01 248.26 986.531 250.139 968.944 274.418C946.054 306.059 972.978 353.197 1010.99 378.701C1023.82 387.33 1037.97 394.843 1051.65 402.12C1077.1 415.677 1103.43 429.692 1122.27 451.198C1141.87 473.587 1152.11 502.468 1162.01 530.405C1175.79 569.306 1188.81 606.067 1225.06 624.889C1228.99 626.934 1233.08 628.681 1237.28 630.112C1288.14 647.397 1343.1 614.367 1364.37 599.36C1372.63 593.534 1380.93 587.242 1388.95 581.163C1419.79 557.801 1451.66 533.636 1491.58 527.389C1513.15 524.01 1535.58 526.233 1557.28 528.387C1573.71 530.012 1590.7 531.699 1607.18 530.936C1646.61 529.114 1686.39 504.518 1682.76 470.809C1679.69 442.301 1647.91 423.366 1634.39 416.546C1626.75 412.694 1618.68 409.21 1610.88 405.842C1594.68 398.843 1577.94 391.608 1563.94 380.641C1537.59 359.977 1524.81 329.574 1512.45 300.159C1505.73 284.223 1498.8 267.695 1489.75 252.821C1469.14 218.877 1434.19 192.203 1391.36 177.648L1391.36 177.64Z" fill="#6A1AB7"/>
<g filter="url(#filter0_f_201_1095)">
<ellipse cx="264.458" cy="229.048" rx="264.458" ry="163.634" fill="url(#paint0_radial_201_1095)" fill-opacity="0.24"/>
</g>
<g filter="url(#filter1_f_201_1095)">
<ellipse cx="1632.79" cy="572.214" rx="157.791" ry="97.6336" transform="rotate(180 1632.79 572.214)" fill="url(#paint1_linear_201_1095)" fill-opacity="0.3"/>
</g>
<g filter="url(#filter2_f_201_1095)">
<ellipse cx="88.9941" cy="55.0654" rx="88.9941" ry="55.0654" transform="matrix(-1 0 0 1 1920 0)" fill="url(#paint2_linear_201_1095)" fill-opacity="0.7"/>
</g>
<ellipse cx="694" cy="541.521" rx="11" ry="10.9903" fill="url(#paint3_linear_201_1095)"/>
<circle cx="1052" cy="251" r="22" fill="url(#paint4_linear_201_1095)"/>
<ellipse cx="1579" cy="607.986" rx="16" ry="15.9859" fill="url(#paint5_linear_201_1095)"/>
<ellipse cx="1203" cy="223.802" rx="8" ry="7.99294" fill="url(#paint6_linear_201_1095)"/>
<path d="M1572.5 176.787C1565.74 176.78 1559.26 174.096 1554.48 169.325C1549.7 164.554 1547.01 158.085 1547 151.338C1547.01 144.591 1549.7 138.122 1554.48 133.351C1559.26 128.58 1565.74 125.896 1572.5 125.889C1579.27 125.896 1585.75 128.58 1590.53 133.351C1595.31 138.122 1598 144.591 1598.01 151.338C1598 158.085 1595.31 164.554 1590.53 169.325C1585.75 174.096 1579.27 176.78 1572.5 176.787ZM1572.5 128.102C1566.33 128.107 1560.41 130.557 1556.04 134.913C1551.68 139.27 1549.22 145.176 1549.21 151.338C1549.22 157.498 1551.67 163.404 1556.04 167.76C1560.4 172.116 1566.32 174.567 1572.5 174.574C1578.67 174.567 1584.59 172.116 1588.95 167.76C1593.32 163.404 1595.78 157.498 1595.78 151.338C1595.78 145.179 1593.32 139.274 1588.96 134.918C1584.59 130.563 1578.68 128.111 1572.5 128.102Z" fill="#6A1AB7"/>
<path d="M823.504 392.898C816.742 392.891 810.26 390.207 805.478 385.436C800.697 380.665 798.008 374.196 798 367.449C798.008 360.702 800.697 354.233 805.478 349.462C810.26 344.691 816.742 342.008 823.504 342C830.266 342.008 836.749 344.691 841.53 349.462C846.311 354.233 849.001 360.702 849.008 367.449C849.001 374.196 846.311 380.665 841.53 385.436C836.749 390.207 830.266 392.891 823.504 392.898ZM823.504 344.213C817.329 344.219 811.409 346.668 807.042 351.025C802.675 355.381 800.218 361.288 800.211 367.449C800.218 373.609 802.674 379.515 807.039 383.871C811.405 388.227 817.323 390.678 823.497 390.686C829.671 390.678 835.589 388.227 839.955 383.871C844.32 379.515 846.776 373.609 846.784 367.449C846.776 361.29 844.321 355.385 839.957 351.03C835.593 346.674 829.677 344.222 823.504 344.213Z" fill="#6A1AB7"/>
<defs>
<filter id="filter0_f_201_1095" x="-150" y="-84.5855" width="828.915" height="627.268" filterUnits="userSpaceOnUse" color-interpolation-filters="sRGB">
<feFlood flood-opacity="0" result="BackgroundImageFix"/>
<feBlend mode="normal" in="SourceGraphic" in2="BackgroundImageFix" result="shape"/>
<feGaussianBlur stdDeviation="75" result="effect1_foregroundBlur_201_1095"/>
</filter>
<filter id="filter1_f_201_1095" x="1325" y="324.581" width="615.582" height="495.267" filterUnits="userSpaceOnUse" color-interpolation-filters="sRGB">
<feFlood flood-opacity="0" result="BackgroundImageFix"/>
<feBlend mode="normal" in="SourceGraphic" in2="BackgroundImageFix" result="shape"/>
<feGaussianBlur stdDeviation="75" result="effect1_foregroundBlur_201_1095"/>
</filter>
<filter id="filter2_f_201_1095" x="1592.01" y="-150" width="477.988" height="410.131" filterUnits="userSpaceOnUse" color-interpolation-filters="sRGB">
<feFlood flood-opacity="0" result="BackgroundImageFix"/>
<feBlend mode="normal" in="SourceGraphic" in2="BackgroundImageFix" result="shape"/>
<feGaussianBlur stdDeviation="75" result="effect1_foregroundBlur_201_1095"/>
</filter>
<radialGradient id="paint0_radial_201_1095" cx="0" cy="0" r="1" gradientUnits="userSpaceOnUse" gradientTransform="translate(305.659 244.463) rotate(34.1621) scale(179.488 167.508)">
<stop stop-color="#2B1867"/>
<stop offset="0.487063" stop-color="#382383"/>
<stop offset="0.781641" stop-color="#452896"/>
<stop offset="1" stop-color="#76248E"/>
</radialGradient>
<linearGradient id="paint1_linear_201_1095" x1="1568.76" y1="521.275" x2="1663.02" y2="688.356" gradientUnits="userSpaceOnUse">
<stop stop-color="#2B1867"/>
<stop offset="0.487063" stop-color="#382383"/>
<stop offset="0.781641" stop-color="#452896"/>
<stop offset="1" stop-color="#76248E"/>
</linearGradient>
<linearGradient id="paint2_linear_201_1095" x1="52.8805" y1="26.3356" x2="106.043" y2="120.569" gradientUnits="userSpaceOnUse">
<stop stop-color="#2B1867"/>
<stop offset="0.487063" stop-color="#3F298D"/>
<stop offset="0.781641" stop-color="#453D9A"/>
<stop offset="1" stop-color="#5D6AA7"/>
</linearGradient>
<linearGradient id="paint3_linear_201_1095" x1="702.25" y1="530.531" x2="685.952" y2="552.526" gradientUnits="userSpaceOnUse">
<stop stop-color="#E250E5"/>
<stop offset="1" stop-color="#4B50E6"/>
</linearGradient>
<linearGradient id="paint4_linear_201_1095" x1="1068.5" y1="229" x2="1035.87" y2="273" gradientUnits="userSpaceOnUse">
<stop stop-color="#E250E5"/>
<stop offset="1" stop-color="#4B50E6"/>
</linearGradient>
<linearGradient id="paint5_linear_201_1095" x1="1591" y1="592" x2="1567.29" y2="623.992" gradientUnits="userSpaceOnUse">
<stop stop-color="#E250E5"/>
<stop offset="1" stop-color="#4B50E6"/>
</linearGradient>
<linearGradient id="paint6_linear_201_1095" x1="1209" y1="215.809" x2="1197.15" y2="231.805" gradientUnits="userSpaceOnUse">
<stop stop-color="#E250E5"/>
<stop offset="1" stop-color="#4B50E6"/>
</linearGradient>
</defs>
</svg>
