<svg width="20" height="20" viewBox="0 0 20 20" fill="none" xmlns="http://www.w3.org/2000/svg">
<g clip-path="url(#clip0_201_1122)">
<path d="M0.00889133 14.3331C-0.0180618 14.4861 0.016821 14.6436 0.105962 14.7709C0.195063 14.8982 0.331157 14.9849 0.484204 15.0118L3.08487 15.4704L1.44663 6.17929L0.00889133 14.3331Z" fill="#5142FC"/>
<path d="M3.13295 0.00947192C2.97955 -0.0183796 2.82127 0.0159954 2.69326 0.105058C2.56529 0.194159 2.47807 0.330605 2.451 0.484199L1.82959 4.00842L13.6528 1.92365L3.13295 0.00947192Z" fill="#5142FC"/>
<path d="M19.991 16.8704L17.549 3.02157C17.4928 2.7029 17.189 2.49024 16.8702 2.5463L3.02141 4.98821C2.70274 5.04438 2.48993 5.34829 2.5461 5.66696L4.98801 19.5158C5.015 19.6689 5.10168 19.8049 5.22899 19.8941C5.32817 19.9635 5.44563 20 5.56508 20C5.59895 20 5.63301 19.9971 5.6668 19.9911L19.5156 17.5492C19.6687 17.5223 19.8047 17.4356 19.8939 17.3083C19.983 17.181 20.0179 17.0235 19.991 16.8704ZM5.66821 9.8763C5.61203 9.55763 5.82485 9.25372 6.14352 9.19755L15.3761 7.56958C15.6951 7.51341 15.9987 7.72618 16.0549 8.04485C16.1111 8.36353 15.8983 8.66743 15.5796 8.7236L6.34699 10.3516C6.31258 10.3577 6.27832 10.3606 6.24457 10.3606C5.96555 10.3606 5.71832 10.1606 5.66821 9.8763ZM13.316 13.8826L7.16098 14.9679C7.12656 14.974 7.09231 14.9769 7.05856 14.9769C6.77953 14.9769 6.53231 14.7769 6.48219 14.4926C6.42602 14.1739 6.63883 13.87 6.9575 13.8138L13.1125 12.7285C13.4314 12.6723 13.7351 12.8851 13.7913 13.2038C13.8475 13.5225 13.6347 13.8264 13.316 13.8826ZM15.9865 11.0318L6.75395 12.6597C6.71953 12.6658 6.68528 12.6687 6.65153 12.6687C6.3725 12.6687 6.12528 12.4687 6.07516 12.1844C6.01899 11.8658 6.2318 11.5618 6.55047 11.5057L15.7831 9.8777C16.102 9.82153 16.4057 10.0343 16.4619 10.353C16.518 10.6717 16.3052 10.9756 15.9865 11.0318Z" fill="#5142FC"/>
</g>
<defs>
<clipPath id="clip0_201_1122">
<rect width="20" height="20" fill="white"/>
</clipPath>
</defs>
</svg>
